<svg xmlns="http://www.w3.org/2000/svg" width="1200" height="675" viewBox="0 0 1200 675">
<rect x="0" y="0" width="1200" height="675" rx="0" fill="#F7F8FA" stroke="none" stroke-width="0" opacity="1"/>
<text x="70" y="70" font-family="Inter,Arial,sans-serif" font-size="36" font-weight="700" fill="#18212F" text-anchor="start" >From visual principles to spatial intelligence</text>
<text x="70" y="108" font-family="Inter,Arial,sans-serif" font-size="20" font-weight="400" fill="#667085" text-anchor="start" >Next: apply the same design logic to places, boundaries, and geographic context.</text>
<rect x="85" y="195" width="390" height="300" rx="18" fill="#FFFFFF" stroke="#D9DEE7" stroke-width="2" opacity="1"/>
<text x="280" y="235" font-family="Inter,Arial,sans-serif" font-size="19" font-weight="700" fill="#667085" text-anchor="middle" >VISUAL EVIDENCE</text>
<rect x="135" y="385" width="42" height="45" rx="5" fill="#3559E0" stroke="none" stroke-width="0" opacity="1"/>
<rect x="205" y="350" width="42" height="80" rx="5" fill="#3559E0" stroke="none" stroke-width="0" opacity="1"/>
<rect x="275" y="368" width="42" height="62" rx="5" fill="#3559E0" stroke="none" stroke-width="0" opacity="1"/>
<rect x="345" y="325" width="42" height="105" rx="5" fill="#3559E0" stroke="none" stroke-width="0" opacity="1"/>
<circle cx="170" cy="295" r="7" fill="#00A6A6" stroke="none" stroke-width="0" opacity="1"/>
<circle cx="230" cy="335" r="7" fill="#00A6A6" stroke="none" stroke-width="0" opacity="1"/>
<circle cx="310" cy="280" r="7" fill="#00A6A6" stroke="none" stroke-width="0" opacity="1"/>
<circle cx="385" cy="360" r="7" fill="#00A6A6" stroke="none" stroke-width="0" opacity="1"/>
<line x1="500" y1="345" x2="665" y2="345" stroke="#3559E0" stroke-width="5" opacity="1"/><polygon points="652.8756443470179,352.0 665,345 652.8756443470179,338.0" fill="#3559E0" stroke="none" stroke-width="0" opacity="1"/>
<text x="582" y="315" font-family="Inter,Arial,sans-serif" font-size="17" font-weight="700" fill="#3559E0" text-anchor="middle" >same principles</text>
<rect x="700" y="195" width="415" height="300" rx="18" fill="#FFFFFF" stroke="#D9DEE7" stroke-width="2" opacity="1"/>
<text x="905" y="235" font-family="Inter,Arial,sans-serif" font-size="19" font-weight="700" fill="#667085" text-anchor="middle" >SPATIAL INTELLIGENCE</text>
<polygon points="745,420 775,290 855,275 900,335 865,455" fill="#DDE7FF" stroke="#3559E0" stroke-width="2" opacity="1"/>
<polygon points="860,280 1010,270 1070,350 1025,450 910,440" fill="#D9F3EE" stroke="#00A6A6" stroke-width="2" opacity="1"/>
<polyline points="745,380 825,350 900,365 1020,315 1080,330" fill="none" stroke="#FFFFFF" stroke-width="8" opacity="1" stroke-linejoin="round" stroke-linecap="round"/>
<polyline points="760,410 850,365 930,390 1040,350" fill="none" stroke="#26364A" stroke-width="3" opacity="1" stroke-linejoin="round" stroke-linecap="round"/>
<circle cx="920" cy="365" r="13" fill="#C83E4D" stroke="#FFFFFF" stroke-width="3" opacity="1"/>
<text x="920" y="405" font-family="Inter,Arial,sans-serif" font-size="15" font-weight="700" fill="#C83E4D" text-anchor="middle" >JMU</text>
<text x="600" y="590" font-family="Inter,Arial,sans-serif" font-size="20" font-weight="600" fill="#3559E0" text-anchor="middle" >Week 2 lab: define areas → inspect reports → interpret spatial evidence.</text>
</svg>