<svg xmlns="http://www.w3.org/2000/svg" width="1200" height="675" viewBox="0 0 1200 675"><rect width="1200" height="675" fill="#fff"/><style>.t{font-family:Arial,Helvetica,sans-serif;fill:#1f2937}.h{font-size:34px;font-weight:700}.l{font-size:22px;font-weight:700}.m{font-size:18px}.sm{font-size:15px;fill:#4b5563}</style><text x="60" y="58" class="t h">Six thematic map types</text><g transform="translate(55,170)"><g><rect width="170" height="250" rx="14" fill="#f8fafc" stroke="#cbd5e1"/><text x="85" y="38" text-anchor="middle" class="t l">Choropleth</text><rect x="28" y="70" width="48" height="48" fill="#dbeafe"/><rect x="78" y="70" width="48" height="48" fill="#60a5fa"/><rect x="53" y="120" width="48" height="48" fill="#1d4ed8"/></g><g transform="translate(185)"><rect width="170" height="250" rx="14" fill="#f8fafc" stroke="#cbd5e1"/><text x="85" y="38" text-anchor="middle" class="t l">Dot density</text><g fill="#111827"><circle cx="30" cy="80" r="4"/><circle cx="52" cy="80" r="4"/><circle cx="74" cy="80" r="4"/><circle cx="96" cy="80" r="4"/><circle cx="118" cy="80" r="4"/><circle cx="140" cy="80" r="4"/><circle cx="30" cy="102" r="4"/><circle cx="52" cy="102" r="4"/><circle cx="74" cy="102" r="4"/><circle cx="96" cy="102" r="4"/><circle cx="118" cy="102" r="4"/><circle cx="140" cy="102" r="4"/><circle cx="30" cy="124" r="4"/><circle cx="52" cy="124" r="4"/><circle cx="74" cy="124" r="4"/><circle cx="96" cy="124" r="4"/><circle cx="118" cy="124" r="4"/><circle cx="140" cy="124" r="4"/><circle cx="30" cy="146" r="4"/><circle cx="52" cy="146" r="4"/><circle cx="74" cy="146" r="4"/><circle cx="96" cy="146" r="4"/><circle cx="118" cy="146" r="4"/><circle cx="140" cy="146" r="4"/><circle cx="30" cy="168" r="4"/><circle cx="52" cy="168" r="4"/><circle cx="74" cy="168" r="4"/><circle cx="96" cy="168" r="4"/><circle cx="118" cy="168" r="4"/><circle cx="140" cy="168" r="4"/></g></g><g transform="translate(370)"><rect width="170" height="250" rx="14" fill="#f8fafc" stroke="#cbd5e1"/><text x="85" y="38" text-anchor="middle" class="t l">Proportional</text><circle cx="55" cy="120" r="18" fill="#60a5fa"/><circle cx="105" cy="120" r="34" fill="#2563eb" opacity=".8"/></g><g transform="translate(555)"><rect width="170" height="250" rx="14" fill="#f8fafc" stroke="#cbd5e1"/><text x="85" y="38" text-anchor="middle" class="t l">Isarithmic</text><path d="M20 155 C55 70 120 70 150 155" fill="none" stroke="#2563eb" stroke-width="3"/><path d="M30 170 C60 95 115 95 140 170" fill="none" stroke="#60a5fa" stroke-width="3"/></g><g transform="translate(740)"><rect width="170" height="250" rx="14" fill="#f8fafc" stroke="#cbd5e1"/><text x="85" y="38" text-anchor="middle" class="t l">Cartogram</text><rect x="30" y="80" width="45" height="45" fill="#93c5fd"/><rect x="80" y="75" width="65" height="65" fill="#2563eb"/></g><g transform="translate(925)"><rect width="170" height="250" rx="14" fill="#f8fafc" stroke="#cbd5e1"/><text x="85" y="38" text-anchor="middle" class="t l">Flow</text><path d="M25 145 C70 75 110 80 145 120" fill="none" stroke="#2563eb" stroke-width="6"/><polygon points="145,120 132,114 137,129" fill="#2563eb"/></g></g></svg>